<mxfile host="app.diagrams.net" agent="Mozilla/5.0 (Windows NT 10.0; Win64; x64) AppleWebKit/537.36 (KHTML, like Gecko) Chrome/128.0.0.0 Safari/537.36" version="24.7.16">
  <diagram name="第 1 页" id="CHhjb9Mza2GHVH6A80a-">
    <mxGraphModel dx="1674" dy="780" grid="1" gridSize="10" guides="1" tooltips="1" connect="1" arrows="1" fold="1" page="1" pageScale="1" pageWidth="1654" pageHeight="1169" math="0" shadow="0">
      <root>
        <mxCell id="0" />
        <mxCell id="1" parent="0" />
        <mxCell id="Cl46bO1Z5zbE_w1ihBnY-24" value="相机预览" style="shape=umlFrame;whiteSpace=wrap;html=1;pointerEvents=0;" parent="1" vertex="1">
          <mxGeometry x="1000" y="120" width="300" height="200" as="geometry" />
        </mxCell>
        <mxCell id="Cl46bO1Z5zbE_w1ihBnY-25" value="相机" style="html=1;whiteSpace=wrap;" parent="1" vertex="1">
          <mxGeometry x="120" y="120" width="160" height="50" as="geometry" />
        </mxCell>
        <mxCell id="Cl46bO1Z5zbE_w1ihBnY-29" value="人脸检测" style="ellipse;shape=umlControl;whiteSpace=wrap;html=1;" parent="1" vertex="1">
          <mxGeometry x="314" y="322" width="70" height="80" as="geometry" />
        </mxCell>
        <mxCell id="Cl46bO1Z5zbE_w1ihBnY-30" value="人脸检测框预览" style="html=1;verticalAlign=bottom;endArrow=block;curved=0;rounded=0;entryX=0;entryY=0.15;entryDx=0;entryDy=0;entryPerimeter=0;exitX=1.014;exitY=0.475;exitDx=0;exitDy=0;exitPerimeter=0;" parent="1" source="Cl46bO1Z5zbE_w1ihBnY-29" target="Cl46bO1Z5zbE_w1ihBnY-34" edge="1">
          <mxGeometry width="80" relative="1" as="geometry">
            <mxPoint x="384" y="441" as="sourcePoint" />
            <mxPoint x="464" y="441" as="targetPoint" />
          </mxGeometry>
        </mxCell>
        <mxCell id="Cl46bO1Z5zbE_w1ihBnY-34" value="检测框预览" style="shape=umlFrame;whiteSpace=wrap;html=1;pointerEvents=0;" parent="1" vertex="1">
          <mxGeometry x="1000" y="330" width="300" height="200" as="geometry" />
        </mxCell>
        <mxCell id="Cl46bO1Z5zbE_w1ihBnY-35" value="人脸识别" style="ellipse;shape=umlControl;whiteSpace=wrap;html=1;" parent="1" vertex="1">
          <mxGeometry x="480" y="517" width="70" height="80" as="geometry" />
        </mxCell>
        <mxCell id="Cl46bO1Z5zbE_w1ihBnY-37" value="业务UI" style="shape=umlFrame;whiteSpace=wrap;html=1;pointerEvents=0;" parent="1" vertex="1">
          <mxGeometry x="1000" y="540" width="300" height="200" as="geometry" />
        </mxCell>
        <mxCell id="Cl46bO1Z5zbE_w1ihBnY-39" value="分析" style="html=1;verticalAlign=bottom;endArrow=block;curved=0;rounded=0;exitX=0.5;exitY=1;exitDx=0;exitDy=0;entryX=0.043;entryY=0.475;entryDx=0;entryDy=0;entryPerimeter=0;" parent="1" source="Cl46bO1Z5zbE_w1ihBnY-25" target="Cl46bO1Z5zbE_w1ihBnY-29" edge="1">
          <mxGeometry x="0.5635" width="80" relative="1" as="geometry">
            <mxPoint x="380" y="480" as="sourcePoint" />
            <mxPoint x="310" y="360" as="targetPoint" />
            <Array as="points">
              <mxPoint x="200" y="360" />
            </Array>
            <mxPoint as="offset" />
          </mxGeometry>
        </mxCell>
        <mxCell id="Cl46bO1Z5zbE_w1ihBnY-40" value="视频流预览" style="html=1;verticalAlign=bottom;endArrow=block;curved=0;rounded=0;entryX=0.007;entryY=0.13;entryDx=0;entryDy=0;entryPerimeter=0;exitX=1;exitY=0.5;exitDx=0;exitDy=0;" parent="1" edge="1">
          <mxGeometry width="80" relative="1" as="geometry">
            <mxPoint x="279" y="145" as="sourcePoint" />
            <mxPoint x="1001.0999999999999" y="146" as="targetPoint" />
          </mxGeometry>
        </mxCell>
        <mxCell id="Cl46bO1Z5zbE_w1ihBnY-41" value="人员身份ID" style="html=1;verticalAlign=bottom;endArrow=block;curved=0;rounded=0;entryX=-0.003;entryY=0.1;entryDx=0;entryDy=0;entryPerimeter=0;" parent="1" target="Cl46bO1Z5zbE_w1ihBnY-37" edge="1">
          <mxGeometry width="80" relative="1" as="geometry">
            <mxPoint x="550" y="560" as="sourcePoint" />
            <mxPoint x="630" y="560" as="targetPoint" />
          </mxGeometry>
        </mxCell>
        <mxCell id="Cl46bO1Z5zbE_w1ihBnY-42" value="Yes" style="html=1;verticalAlign=bottom;endArrow=block;curved=0;rounded=0;entryX=-0.016;entryY=0.533;entryDx=0;entryDy=0;entryPerimeter=0;exitX=0.49;exitY=1.015;exitDx=0;exitDy=0;exitPerimeter=0;" parent="1" source="Cl46bO1Z5zbE_w1ihBnY-29" target="Cl46bO1Z5zbE_w1ihBnY-35" edge="1">
          <mxGeometry x="0.3843" y="3" width="80" relative="1" as="geometry">
            <mxPoint x="347" y="430" as="sourcePoint" />
            <mxPoint x="400" y="500" as="targetPoint" />
            <Array as="points">
              <mxPoint x="347" y="560" />
            </Array>
            <mxPoint as="offset" />
          </mxGeometry>
        </mxCell>
        <mxCell id="Q5eR2odcM2XTZmfw3l5h-1" value="" style="endArrow=classic;html=1;rounded=0;" edge="1" parent="1">
          <mxGeometry width="50" height="50" relative="1" as="geometry">
            <mxPoint x="1360" y="120" as="sourcePoint" />
            <mxPoint x="1360" y="740" as="targetPoint" />
          </mxGeometry>
        </mxCell>
        <mxCell id="Q5eR2odcM2XTZmfw3l5h-4" value="" style="shape=actor;whiteSpace=wrap;html=1;" vertex="1" parent="1">
          <mxGeometry x="1340" y="820" width="40" height="60" as="geometry" />
        </mxCell>
        <mxCell id="Q5eR2odcM2XTZmfw3l5h-5" value="UI Z-Order" style="text;html=1;align=center;verticalAlign=middle;resizable=0;points=[];autosize=1;strokeColor=none;fillColor=none;" vertex="1" parent="1">
          <mxGeometry x="1365" y="110" width="80" height="30" as="geometry" />
        </mxCell>
      </root>
    </mxGraphModel>
  </diagram>
</mxfile>
